<?xml version="1.0" encoding="UTF-8"?>
<svg version="1.1" xmlns="http://www.w3.org/2000/svg" width="328" height="333">
<path d="M0 0 C2.96654825 2.64094577 5.81194274 5.39975194 8.65234375 8.17578125 C9.56242187 9.02398437 10.4725 9.8721875 11.41015625 10.74609375 C23.66687811 22.44410464 32.94484753 36.1541056 40.65234375 51.17578125 C40.97041992 51.78744141 41.28849609 52.39910156 41.61621094 53.02929688 C46.91396506 63.33694388 50.608576 74.00785572 53.65234375 85.17578125 C53.86552246 85.91844238 54.07870117 86.66110352 54.29833984 87.42626953 C61.50795583 113.44606522 60.10759868 145.45136735 52.65234375 171.17578125 C52.41128906 172.03397461 52.17023438 172.89216797 51.921875 173.77636719 C44.84717543 198.19156716 31.70395786 220.49499644 14.06884766 238.70800781 C12.64758862 240.18070849 11.24955933 241.67320623 9.8515625 243.16796875 C-10.07373742 264.14196866 -36.28171538 278.16256632 -64.09765625 285.55078125 C-64.99508545 285.78958008 -65.89251465 286.02837891 -66.81713867 286.27441406 C-79.59841029 289.46597922 -92.38932635 290.54644129 -105.53515625 290.48828125 C-106.20641541 290.4861261 -106.87767456 290.48397095 -107.5692749 290.48175049 C-148.0536985 290.27454344 -186.35784261 275.69568093 -216.171875 248.1640625 C-217.91766999 246.56871304 -219.68053727 245.07642393 -221.53515625 243.61328125 C-250.01932837 218.92699875 -266.29467009 178.3306429 -269.97265625 141.55078125 C-271.94433737 113.29001849 -268.10391058 85.07766182 -256.34765625 59.17578125 C-255.90897217 58.20777588 -255.90897217 58.20777588 -255.46142578 57.22021484 C-236.59291477 16.27684447 -202.63562241 -13.23628975 -160.8515625 -29.15625 C-107.08002478 -48.31489261 -43.36987117 -37.37065613 0 0 Z M-110.91015625 -32.63671875 C-123.0789124 -15.53048007 -124.48307904 8.70138024 -126.53515625 28.80078125 C-126.78325023 31.10430218 -127.03259479 33.40768876 -127.28320312 35.7109375 C-130.57998036 64.99963461 -130.57998036 64.99963461 -131.53515625 94.42578125 C-131.52726074 95.61445801 -131.51936523 96.80313477 -131.51123047 98.02783203 C-131.48044797 101.56521821 -131.43605358 105.10192695 -131.38409424 108.63903809 C-131.34385182 111.44063811 -131.30832692 114.24227975 -131.27294922 117.04394531 C-130.97658134 171.31447281 -130.97658134 171.31447281 -125.77734375 225.26953125 C-125.30047512 228.49489728 -124.86993607 231.72489957 -124.44140625 234.95703125 C-121.81966205 263.27696928 -121.81966205 263.27696928 -108.34765625 287.17578125 C-105.89092733 287.84264063 -105.89092733 287.84264063 -103.34765625 287.17578125 C-96.5276422 280.76910138 -94.38575784 270.45070981 -92.34765625 261.67578125 C-92.09274414 260.59280762 -91.83783203 259.50983398 -91.57519531 258.39404297 C-83.75287039 224.2293237 -82.20426525 189.95747541 -82.14453125 155.03515625 C-82.14170387 153.88851753 -82.1388765 152.74187881 -82.13596344 151.56049347 C-82.12112672 145.48889451 -82.11180045 139.41731835 -82.10742188 133.34570312 C-82.10304795 128.42049713 -82.08917528 123.49546736 -82.06640625 118.5703125 C-78.4143491 39.14643455 -78.4143491 39.14643455 -102.34765625 -33.82421875 C-106.37160425 -35.53653705 -107.55897111 -35.49748655 -110.91015625 -32.63671875 Z M-94.34765625 -33.82421875 C-93.99574219 -33.31375 -93.64382812 -32.80328125 -93.28125 -32.27734375 C-91.60684464 -29.81163977 -89.97274766 -27.3227073 -88.34765625 -24.82421875 C-87.78304687 -23.96570312 -87.2184375 -23.1071875 -86.63671875 -22.22265625 C-66.41446275 10.26105814 -64.9548804 52.07332914 -62.34765625 89.17578125 C-62.27417969 90.17786621 -62.20070312 91.17995117 -62.125 92.21240234 C-59.30222613 132.18918659 -60.96651655 172.62607939 -66.92236328 212.21386719 C-67.49377892 216.19343922 -67.93586977 220.17678264 -68.34765625 224.17578125 C-64.39862811 225.88938146 -60.44759813 227.59825193 -56.49462891 229.30273438 C-55.14966456 229.88346276 -53.80525972 230.4654887 -52.46142578 231.04882812 C-50.53172471 231.8862187 -48.60007141 232.71894958 -46.66796875 233.55078125 C-45.50539551 234.05351562 -44.34282227 234.55625 -43.14501953 235.07421875 C-40.53857723 236.2979149 -40.53857723 236.2979149 -38.34765625 236.17578125 C-27.85890147 214.58456795 -21.5029006 191.76956975 -17.34765625 168.17578125 C-17.21633301 167.46856934 -17.08500977 166.76135742 -16.94970703 166.03271484 C-7.32021197 112.40196466 -17.40068338 46.86841242 -47.671875 1.57470703 C-58.80154312 -14.35771123 -73.26155471 -28.40470843 -92.34765625 -33.82421875 C-93.00765625 -33.82421875 -93.66765625 -33.82421875 -94.34765625 -33.82421875 Z M-70.34765625 -29.82421875 C-67.14272448 -27.16870386 -63.93559834 -24.92447753 -60.34765625 -22.82421875 C-53.74605973 -18.68483931 -48.29825265 -13.55665848 -42.72949219 -8.15478516 C-41.62419875 -7.09050084 -40.49375492 -6.05235892 -39.35546875 -5.0234375 C-11.56798402 20.70325291 -0.05314876 64.75973417 3.65234375 101.17578125 C3.78829956 102.45642456 3.78829956 102.45642456 3.92700195 103.76293945 C6.12005177 126.72603954 6.19386326 150.72482228 0.65234375 173.17578125 C0.40033203 174.22266113 0.14832031 175.26954102 -0.11132812 176.34814453 C-4.89903993 195.93241171 -10.9723907 214.47188088 -20.38037109 232.32177734 C-22.08207069 235.58343983 -23.70971426 238.88173826 -25.34765625 242.17578125 C-22.74568423 243.18183718 -20.14136263 244.1808065 -17.53515625 245.17578125 C-16.79716797 245.46195312 -16.05917969 245.748125 -15.29882812 246.04296875 C-14.23051758 246.44902344 -14.23051758 246.44902344 -13.140625 246.86328125 C-12.48602295 247.11464844 -11.8314209 247.36601562 -11.15698242 247.625 C-9.18454482 248.32139031 -9.18454482 248.32139031 -6.34765625 248.17578125 C-4.31229547 246.16957026 -4.31229547 246.16957026 -2.28515625 243.48828125 C-1.09212891 241.97427734 -1.09212891 241.97427734 0.125 240.4296875 C0.54023926 239.89359863 0.95547852 239.35750977 1.38330078 238.80517578 C2.62109446 237.21590394 3.88449439 235.64668038 5.1484375 234.078125 C13.72634261 223.35741899 20.49615769 211.90379659 26.46484375 199.55078125 C26.82586182 198.8119873 27.18687988 198.07319336 27.55883789 197.31201172 C46.82273729 156.27717511 47.06820244 105.91482282 32.54711914 63.52978516 C25.72501013 45.04391849 15.07726489 28.65653836 1.625 14.32421875 C-0.34765625 12.17578125 -0.34765625 12.17578125 -2.390625 9.59375 C-4.07791749 7.50905129 -5.68747472 5.83996241 -7.72265625 4.11328125 C-10.36170038 1.87156533 -12.98075034 -0.38370043 -15.55859375 -2.6953125 C-29.05665219 -14.70600768 -51.38987071 -29.82421875 -70.34765625 -29.82421875 Z M-208.67431641 9.03320312 C-209.50261963 9.8772168 -209.50261963 9.8772168 -210.34765625 10.73828125 C-210.92435059 11.32544922 -211.50104492 11.91261719 -212.09521484 12.51757812 C-242.10536465 43.77368136 -254.51012119 88.65235024 -254.34765625 131.17578125 C-253.19907216 167.28101098 -241.8001057 201.63389875 -219.34765625 230.17578125 C-218.64511719 231.09875 -217.94257813 232.02171875 -217.21875 232.97265625 C-215.00869421 235.78915461 -212.71698179 238.49177966 -210.34765625 241.17578125 C-209.87972656 241.7063916 -209.41179687 242.23700195 -208.9296875 242.78369141 C-192.10259265 261.53032953 -166.25412508 278.65216921 -141.34765625 284.17578125 C-140.35765625 283.84578125 -139.36765625 283.51578125 -138.34765625 283.17578125 C-139.18167969 282.75167969 -140.01570313 282.32757813 -140.875 281.890625 C-147.91298886 278.22248648 -154.3057112 274.3592485 -160.34765625 269.17578125 C-161.146875 268.50933594 -161.94609375 267.84289062 -162.76953125 267.15625 C-197.01371369 237.64457103 -212.71504488 191.19927974 -216.15136719 147.38964844 C-218.76526306 104.5919802 -211.06592397 63.13496362 -193.34765625 24.17578125 C-193.0213623 23.45551758 -192.69506836 22.73525391 -192.35888672 21.99316406 C-190.71513753 18.37465101 -189.0473028 14.7683675 -187.34765625 11.17578125 C-189.61572829 10.16908085 -191.88673379 9.17026359 -194.16015625 8.17578125 C-194.80275391 7.88960937 -195.44535156 7.6034375 -196.10742188 7.30859375 C-202.01566073 4.73713228 -203.96833747 4.43361516 -208.67431641 9.03320312 Z M-173.34765625 17.17578125 C-182.88637518 34.69233782 -188.26163229 52.50598524 -192.16015625 71.98828125 C-192.30736115 72.72132477 -192.45456604 73.45436829 -192.60623169 74.20962524 C-195.84549283 90.51732266 -197.73910647 106.47814559 -197.66015625 123.11328125 C-197.65833344 123.91704193 -197.65651062 124.72080261 -197.65463257 125.54891968 C-197.60136259 139.58946433 -196.74473798 153.31947951 -194.34765625 167.17578125 C-194.1760498 168.16787598 -194.00444336 169.1599707 -193.82763672 170.18212891 C-188.05846647 202.32759496 -177.91501297 237.57663679 -155.34765625 262.17578125 C-154.90583008 262.66530273 -154.46400391 263.15482422 -154.00878906 263.65917969 C-145.14863567 273.38253522 -134.88910849 281.69144018 -122.34765625 286.17578125 C-120.00284579 285.99205337 -120.00284579 285.99205337 -118.34765625 285.17578125 C-118.90453125 284.3971875 -119.46140625 283.61859375 -120.03515625 282.81640625 C-148.17088721 242.15313239 -151.59244958 182.32825995 -151.53515625 134.30078125 C-151.53421967 133.28356995 -151.53328308 132.26635864 -151.53231812 131.21832275 C-151.47724747 103.48170531 -149.33495281 76.24775556 -146.0246582 48.71826172 C-145.91472031 47.79815308 -145.80478241 46.87804443 -145.69151306 45.93005371 C-145.48400758 44.2020239 -145.27332511 42.4743714 -145.05885315 40.74719238 C-144.55079963 36.52638125 -144.23557378 32.43748179 -144.34765625 28.17578125 C-148.15442884 26.60475636 -151.96304389 25.03829695 -155.7734375 23.47607422 C-157.06985308 22.94380339 -158.36575519 22.4102802 -159.66113281 21.87548828 C-161.52143574 21.10772161 -163.38373788 20.34480466 -165.24609375 19.58203125 C-166.36677246 19.12119141 -167.48745117 18.66035156 -168.64208984 18.18554688 C-171.17863913 17.05922819 -171.17863913 17.05922819 -173.34765625 17.17578125 Z " fill="#307EC0" transform="translate(270.34765625,42.82421875)"/>
<path d="M0 0 C7.59519133 0.26418057 14.73923727 1.2048905 22.125 2.9375 C22.85904053 3.10733398 23.59308105 3.27716797 24.34936523 3.45214844 C27.7066937 4.27339361 30.09590726 5.06393818 33 7 C32.34 7 31.68 7 31 7 C31 7.66 31 8.32 31 9 C32.98 9.66 34.96 10.32 37 11 C33.00801641 12.3306612 30.46810815 11.00644671 26.6875 9.625 C22.14411719 7.98920243 17.77982406 6.75043914 13 6 C10.57999041 5.13826227 8.33889818 4.07589316 6 3 C6 2.34 6 1.68 6 1 C4.02 1 2.04 1 0 1 C0 0.67 0 0.34 0 0 Z " fill="#88D0EE" transform="translate(181,6)"/>
<path d="M0 0 C2.06277107 0.14194764 4.12521031 0.28872216 6.1875 0.4375 C7.91033203 0.55931641 7.91033203 0.55931641 9.66796875 0.68359375 C12.51598171 0.95403812 15.21210482 1.37521747 18 2 C18.33 3.32 18.66 4.64 19 6 C16.44855176 6.93045933 15.25993522 7.08564091 12.640625 6.22265625 C11.85171875 5.83980469 11.0628125 5.45695313 10.25 5.0625 C9.45078125 4.68222656 8.6515625 4.30195313 7.828125 3.91015625 C7.22484375 3.60980469 6.6215625 3.30945313 6 3 C6 2.34 6 1.68 6 1 C4.02 1 2.04 1 0 1 C0 0.67 0 0.34 0 0 Z " fill="#58BDE7" transform="translate(181,6)"/>
<path d="M0 0 C9.57 0 19.14 0 29 0 C29 0.33 29 0.66 29 1 C25.37 1 21.74 1 18 1 C18.33 2.32 18.66 3.64 19 5 C17.906875 4.79375 16.81375 4.5875 15.6875 4.375 C11.9161599 3.59653475 11.9161599 3.59653475 9 6 C9.66 4.35 10.32 2.7 11 1 C7.37 1 3.74 1 0 1 C0 0.67 0 0.34 0 0 Z " fill="#93D4F0" transform="translate(150,5)"/>
<path d="M0 0 C1.65 0 3.3 0 5 0 C5 0.33 5 0.66 5 1 C9.29 1.33 13.58 1.66 18 2 C18 2.33 18 2.66 18 3 C7.77 3 -2.46 3 -13 3 C-13 2.67 -13 2.34 -13 2 C-6.565 1.505 -6.565 1.505 0 1 C0 0.67 0 0.34 0 0 Z " fill="#8B9BCA" transform="translate(162,330)"/>
<path d="M0 0 C5.28 0.66 10.56 1.32 16 2 C15.67 2.66 15.34 3.32 15 4 C10.83861737 4.08159574 7.0527516 3.98248524 3 3 C3 2.34 3 1.68 3 1 C2.01 0.67 1.02 0.34 0 0 Z " fill="#4D66AE" transform="translate(126,327)"/>
<path d="M0 0 C4.455 0.99 4.455 0.99 9 2 C9 2.99 9 3.98 9 5 C0.42857143 4.14285714 0.42857143 4.14285714 -3 2 C-2.01 2 -1.02 2 0 2 C0 1.34 0 0.68 0 0 Z " fill="#7D90C4" transform="translate(120,324)"/>
<path d="M0 0 C1.6266848 0.28211877 3.25132896 0.57602375 4.875 0.875 C5.77992188 1.03742187 6.68484375 1.19984375 7.6171875 1.3671875 C10 2 10 2 12 4 C9.69 3.67 7.38 3.34 5 3 C5.66 4.32 6.32 5.64 7 7 C5.83040013 6.02433888 4.66438823 5.044375 3.5 4.0625 C2.8503125 3.51722656 2.200625 2.97195312 1.53125 2.41015625 C1.0259375 1.94480469 0.520625 1.47945312 0 1 C0 0.67 0 0.34 0 0 Z " fill="#BFE6F6" transform="translate(172,7)"/>
<path d="M0 0 C1.45922693 0.11409593 2.91740598 0.24165544 4.375 0.375 C5.59316406 0.47941406 5.59316406 0.47941406 6.8359375 0.5859375 C9 1 9 1 11 3 C8.83032311 3.95465783 7.43671207 4.14401212 5.17578125 3.3984375 C3.4315257 2.64129615 1.71372869 1.82390802 0 1 C0 0.67 0 0.34 0 0 Z " fill="#BDE5F5" transform="translate(189,9)"/>
</svg>
