<?xml version="1.0" encoding="UTF-8"?>
<svg version="1.1" xmlns="http://www.w3.org/2000/svg" width="329" height="333">
<path d="M0 0 C2.96654825 2.64094577 5.81194274 5.39975194 8.65234375 8.17578125 C9.56242187 9.02398437 10.4725 9.8721875 11.41015625 10.74609375 C23.66687811 22.44410464 32.94484753 36.1541056 40.65234375 51.17578125 C40.97041992 51.78744141 41.28849609 52.39910156 41.61621094 53.02929688 C52.21382399 73.64868611 57.97989832 97.02026916 58.65234375 120.17578125 C58.69230469 121.09359375 58.73226563 122.01140625 58.7734375 122.95703125 C59.38548676 148.5910942 53.83307317 174.14643571 42.65234375 197.17578125 C42.29769043 197.9126416 41.94303711 198.64950195 41.57763672 199.40869141 C34.38931658 214.13779542 25.46332549 226.94013384 14.06884766 238.70800781 C12.64758862 240.18070849 11.24955933 241.67320623 9.8515625 243.16796875 C-10.07373742 264.14196866 -36.28171538 278.16256632 -64.09765625 285.55078125 C-64.99508545 285.78958008 -65.89251465 286.02837891 -66.81713867 286.27441406 C-79.59841029 289.46597922 -92.38932635 290.54644129 -105.53515625 290.48828125 C-106.20641541 290.4861261 -106.87767456 290.48397095 -107.5692749 290.48175049 C-148.0536985 290.27454344 -186.35784261 275.69568093 -216.171875 248.1640625 C-217.91766999 246.56871304 -219.68053727 245.07642393 -221.53515625 243.61328125 C-250.01932837 218.92699875 -266.29467009 178.3306429 -269.97265625 141.55078125 C-271.94433737 113.29001849 -268.10391058 85.07766182 -256.34765625 59.17578125 C-255.90897217 58.20777588 -255.90897217 58.20777588 -255.46142578 57.22021484 C-236.59291477 16.27684447 -202.63562241 -13.23628975 -160.8515625 -29.15625 C-107.08002478 -48.31489261 -43.36987117 -37.37065613 0 0 Z " fill="#257CC0" transform="translate(270.34765625,42.82421875)"/>
<path d="M0 0 C39.00421529 -1.49377846 77.16541686 13.71081455 106 40 C121.30984281 54.19191604 133.46530045 69.41716065 143 88 C143.31807617 88.61166016 143.63615234 89.22332031 143.96386719 89.85351562 C154.56148024 110.47290486 160.32755457 133.84448791 161 157 C161.03996094 157.9178125 161.07992187 158.835625 161.12109375 159.78125 C161.73314301 185.41531295 156.18072942 210.97065446 145 234 C144.64534668 234.73686035 144.29069336 235.4737207 143.92529297 236.23291016 C136.73697283 250.96201417 127.81098174 263.76435259 116.41650391 275.53222656 C114.99524487 277.00492724 113.59721558 278.49742498 112.19921875 279.9921875 C89.41252594 303.97817993 52.15251756 325.13440942 18.39038086 326.07250977 C15.30113465 326.09833916 12.21424194 326.08722915 9.125 326.0625 C7.52011719 326.05573242 7.52011719 326.05573242 5.8828125 326.04882812 C3.25515014 326.03709749 0.62760462 326.02068228 -2 326 C-1.39490601 325.14728516 -1.39490601 325.14728516 -0.77758789 324.27734375 C12.5827811 304.94967939 14.42259641 276.83982565 17 254 C17.0937793 253.17612793 17.18755859 252.35225586 17.28417969 251.50341797 C32.84205171 122.24415446 32.84205171 122.24415446 0 2 C0 1.34 0 0.68 0 0 Z " fill="#2371B9" transform="translate(168,6)"/>
<path d="M0 0 C9.59409876 8.86849465 11.06378433 28.47811321 12.83081055 40.77099609 C13.18552479 43.23627224 13.55886924 45.69815004 13.93554688 48.16015625 C15.67841532 59.73931332 16.9498215 71.3392778 18 83 C18.07249969 83.78759705 18.14499939 84.57519409 18.21969604 85.38665771 C22.57640415 133.0927656 22.23651066 181.2260943 19 229 C18.9271579 230.09556213 18.9271579 230.09556213 18.85284424 231.21325684 C13.72817836 307.27182164 13.72817836 307.27182164 -2 323 C-5.25 323.375 -5.25 323.375 -9 322 C-26.8721719 300.11210553 -26.03018422 256.78130252 -28 230 C-28.05327454 229.27697693 -28.10654907 228.55395386 -28.16143799 227.809021 C-32.2639126 171.0201509 -31.31830811 113.55992808 -24.25457764 57.05334473 C-24.00979387 55.07899434 -23.77447407 53.10347761 -23.53955078 51.12792969 C-18.91898916 12.7849266 -18.91898916 12.7849266 -9 0 C-5.65361104 -1.67319448 -3.53510522 -1.01858964 0 0 Z " fill="#FDFDFE" transform="translate(169,8)"/>
<path d="M0 0 C7.00360608 1.98838769 13.79482678 4.31913466 20.5625 7 C21.46291016 7.34289062 22.36332031 7.68578125 23.29101562 8.0390625 C24.57202148 8.54566406 24.57202148 8.54566406 25.87890625 9.0625 C26.6479126 9.36285156 27.41691895 9.66320312 28.20922852 9.97265625 C30 11 30 11 31 14 C30.77807617 16.10620117 30.77807617 16.10620117 30.29296875 18.54296875 C30.03265869 19.89322144 30.03265869 19.89322144 29.76708984 21.27075195 C29.5758252 22.23327881 29.38456055 23.19580566 29.1875 24.1875 C24.10152682 51.05281776 22.63568284 78.02072352 22.68432617 105.32641602 C22.68894014 108.13810298 22.68207517 110.94935541 22.66381836 113.76098633 C22.49408188 140.20726881 24.25773541 166.29144918 28.4375 192.4375 C28.54460297 193.11915222 28.65170593 193.80080444 28.76205444 194.50311279 C33.02855086 221.6045498 39.02238584 250.93178442 59 271 C56.10644003 272.44677999 54.66722937 271.49012189 51.625 270.5 C40.27873678 266.52337904 31.57155846 260.30826827 23 252 C22.34773438 251.4328125 21.69546875 250.865625 21.0234375 250.28125 C4.92667554 235.70804987 -4.322589 213.3528109 -11.22705078 193.24609375 C-11.92435686 191.2198095 -12.64585353 189.20389161 -13.37109375 187.1875 C-26.4641238 148.68338671 -27.043568 104.9030451 -21 65 C-20.8772168 64.18644043 -20.75443359 63.37288086 -20.62792969 62.53466797 C-19.15340765 53.14525287 -16.78429328 44.08138669 -14 35 C-13.62514019 33.7112749 -13.25147494 32.42220182 -12.87890625 31.1328125 C-9.7541083 20.51369663 -6.17670062 9.26505092 0 0 Z " fill="#FDFDFE" transform="translate(97,59)"/>
<path d="M0 0 C16.57216834 1.3781429 31.24528377 11.97851166 41.90234375 24.25390625 C78.69676406 68.6270314 87.89488814 130.4704614 83.47998047 186.45019531 C83.1032878 190.31949278 82.58143647 194.15667331 82 198 C81.87109375 198.8883252 81.7421875 199.77665039 81.609375 200.69189453 C77.98378328 225.12687207 71.9076756 250.1692614 60 272 C52.99593453 269.76188601 46.22723357 267.12994735 39.4375 264.3125 C37.92446289 263.68891602 37.92446289 263.68891602 36.38085938 263.05273438 C33.9194494 262.03784021 31.45920717 261.02021747 29 260 C29.17128418 258.92032959 29.34256836 257.84065918 29.51904297 256.72827148 C39.17472192 195.4144536 41.50685996 132.27762865 30 71 C29.84418457 70.15099121 29.68836914 69.30198242 29.52783203 68.42724609 C25.93542686 49.13469978 21.05241795 29.32453746 10.5625 12.5625 C10.20309326 11.98258301 9.84368652 11.40266602 9.47338867 10.80517578 C6.78075605 6.68123744 3.80738825 4.01851932 0 1 C0 0.67 0 0.34 0 0 Z " fill="#FDFDFE" transform="translate(172,7)"/>
<path d="M0 0 C12.80665755 1.6514274 23.68131305 5.90532241 35 12 C35.93457031 12.47308594 36.86914062 12.94617187 37.83203125 13.43359375 C51.10248324 20.29226074 62.45596495 29.51343484 73 40 C73.48065918 40.47663086 73.96131836 40.95326172 74.45654297 41.44433594 C106.85775687 74.03568468 120.41775118 118.84339608 120.37109375 163.89697266 C119.79300067 201.02500056 106.24595948 239.61317765 82 268 C81.28481201 268.84062988 81.28481201 268.84062988 80.55517578 269.69824219 C79.09444365 271.39707988 77.61570443 273.07742913 76.125 274.75 C75.67261963 275.2641748 75.22023926 275.77834961 74.75415039 276.30810547 C73.03348704 278.18315029 71.40367559 279.7797354 69.16015625 281.00390625 C65.59968014 280.99746778 62.54049955 279.54811256 59.3125 278.1875 C58.62349609 277.91357422 57.93449219 277.63964844 57.22460938 277.35742188 C52.13533453 275.27066906 52.13533453 275.27066906 51 273 C52.41540194 270.45961336 53.88882733 268.02003879 55.4375 265.5625 C66.91596969 246.69937959 73.902045 225.61900698 78 204 C78.18481934 203.05737305 78.36963867 202.11474609 78.56005859 201.14355469 C83.75271503 173.89200125 84.05488874 145.30960021 79 118 C78.86609863 117.2373584 78.73219727 116.4747168 78.59423828 115.68896484 C75.1890875 96.75632648 68.80598888 78.08684998 60 61 C59.45859375 59.90945312 58.9171875 58.81890625 58.359375 57.6953125 C45.39441357 32.43181289 25.92308969 12.70333633 0 1 C0 0.67 0 0.34 0 0 Z " fill="#FCFDFE" transform="translate(193,10)"/>
<path d="M0 0 C2.12694862 0.75084164 4.23264862 1.56463585 6.3125 2.4375 C7.36050781 2.86933594 8.40851563 3.30117188 9.48828125 3.74609375 C12 5 12 5 13 7 C12.21484375 8.70141602 12.21484375 8.70141602 10.9375 10.75390625 C10.24164795 11.89907715 10.24164795 11.89907715 9.53173828 13.06738281 C9.02626465 13.89077148 8.52079102 14.71416016 8 15.5625 C2.71758549 24.42755049 -1.45185705 33.32389858 -5 43 C-5.67289063 44.79244141 -5.67289063 44.79244141 -6.359375 46.62109375 C-25.70163941 101.1256845 -21.82843169 163.58153749 2 216 C9.31031583 231.00947824 18.55934358 243.83498172 30 256 C30.53753906 256.60199219 31.07507813 257.20398438 31.62890625 257.82421875 C39.94649904 266.76719446 50.68474094 273.58428915 62 278 C62.92683594 278.37125 63.85367188 278.7425 64.80859375 279.125 C65.53175781 279.41375 66.25492187 279.7025 67 280 C63.00017956 281.61201831 59.70330295 280.29016551 55.8125 279 C54.76171265 278.6582373 54.76171265 278.6582373 53.68969727 278.30957031 C10.85450462 264.05179482 -20.26926299 234.69032071 -40.33203125 194.62109375 C-48.19585164 178.3918569 -52.56657491 160.82804064 -55 143 C-55.11214844 142.2059375 -55.22429688 141.411875 -55.33984375 140.59375 C-60.31086637 97.55695146 -48.90833752 51.80145907 -22.59472656 17.14941406 C-19.53446087 13.303715 -16.30027133 9.64045315 -13 6 C-11.99066406 4.81470703 -11.99066406 4.81470703 -10.9609375 3.60546875 C-10.37570313 2.95191406 -9.79046875 2.29835937 -9.1875 1.625 C-8.70667969 1.08101562 -8.22585937 0.53703125 -7.73046875 -0.0234375 C-4.96119969 -1.58623043 -3.00801909 -0.76855255 0 0 Z " fill="#FDFDFE" transform="translate(72,48)"/>
<path d="M0 0 C7.59519133 0.26418057 14.73923727 1.2048905 22.125 2.9375 C22.85904053 3.10733398 23.59308105 3.27716797 24.34936523 3.45214844 C27.7066937 4.27339361 30.09590726 5.06393818 33 7 C32.34 7 31.68 7 31 7 C31 7.66 31 8.32 31 9 C30.27296875 8.80664062 29.5459375 8.61328125 28.796875 8.4140625 C21.57497053 6.54377442 14.37575426 5.11159417 7 4 C6.67 3.01 6.34 2.02 6 1 C4.02 1 2.04 1 0 1 C0 0.67 0 0.34 0 0 Z " fill="#5ABEE7" transform="translate(181,6)"/>
<path d="M0 0 C1.97914722 0.35427534 3.95831474 0.70843726 5.9375 1.0625 C7.62524051 1.37369845 9.31282461 1.68575214 11 2 C10.67 2.66 10.34 3.32 10 4 C3.05514697 4.48452463 -3.2990368 2.69287491 -10 1 C-6.21476829 -1.5234878 -4.20115561 -0.81918777 0 0 Z " fill="#546DB2" transform="translate(131,327)"/>
<path d="M0 0 C4.05606165 0.46800711 7.46588679 0.87953208 11 3 C10.01 3.66 9.02 4.32 8 5 C5.36 3.68 2.72 2.36 0 1 C0 0.67 0 0.34 0 0 Z " fill="#CFECF8" transform="translate(193,10)"/>
</svg>
